<?xml version="1.0" encoding="utf-8"?>
<!-- Generator: Adobe Illustrator 24.2.3, SVG Export Plug-In . SVG Version: 6.00 Build 0)  -->
<svg version="1.1" id="Capa_1" xmlns="http://www.w3.org/2000/svg" xmlns:xlink="http://www.w3.org/1999/xlink" x="0px" y="0px"
	 viewBox="0 0 601.2 857.5" style="enable-background:new 0 0 601.2 857.5;" xml:space="preserve">
<style type="text/css">
	.st0{fill:none;stroke:#FFFFFF;stroke-width:20;stroke-miterlimit:10;}
	.st1{fill:none;}
	.st2{fill:#FFFFFF;}
</style>
<path class="st0" d="M195,605.6c-20-19-47.4-28.1-74.9-28.6c-30.1-0.5-52,40.5-63.8,62.8c-12.8,24-23.1,49.3-30.7,75.4
	C19.5,735.8,5,772,21,791.6c6.3,7.7,16.8,10.5,26.8,10.8c29.8,1.1,64.8-12.7,91.4-25.4c29.9-14.3,61.8-34.2,78.2-64.1
	c18.3-33.3,6.6-76.7-18.6-103.4C197.6,608.2,196.3,606.9,195,605.6z"/>
<line class="st1" x1="203.6" y1="618" x2="271.7" y2="585.7"/>
<path class="st2" d="M207.4,624.4l68.1-32.3c8.7-4.1,1.1-17.1-7.6-13l-68.1,32.3C191.1,615.6,198.7,628.5,207.4,624.4z"/>
<line class="st1" x1="185.2" y1="600" x2="232.1" y2="561"/>
<path class="st2" d="M190.5,605.3l46.9-39.1c7.4-6.2-3.2-16.8-10.6-10.6l-46.9,39.1C172.5,600.9,183.1,611.5,190.5,605.3
	L190.5,605.3z"/>
<line class="st1" x1="164.7" y1="587.6" x2="207.3" y2="525.5"/>
<path class="st2" d="M171.1,591.4l42.6-62.1c5.5-8-7.5-15.5-13-7.6l-42.6,62.1C152.7,591.8,165.7,599.3,171.1,591.4z"/>
<g>
	<path class="st2" d="M121.2,618.2c0.5,2.2,0.5,4.1,0.4,6c-0.1,1.8-0.4,3.6-0.8,5.2c-0.8,3.3-2.2,6.1-4,8.8c-1.8,2.6-3.9,5-6.6,7
		c-2.8,2-5.8,3.7-10.2,4.6c-0.8-4.4-0.4-7.9,0.4-11.2c0.8-3.2,2.2-6.1,4-8.8c1.8-2.6,4-5,6.7-7c1.3-1,2.8-1.9,4.5-2.7
		C117.2,619.3,118.9,618.6,121.2,618.2z"/>
</g>
<g>
	<path class="st2" d="M152.8,642.7c0.2,2.3,0,4.2-0.3,6c-0.3,1.8-0.8,3.5-1.4,5c-1.2,3.1-2.9,5.8-5,8.2c-2.1,2.4-4.5,4.5-7.4,6.2
		c-3,1.6-6.2,3-10.7,3.3c-0.3-4.5,0.6-7.9,1.7-11c1.2-3.1,2.9-5.8,5-8.2c2.1-2.4,4.5-4.5,7.4-6.1c1.5-0.8,3-1.6,4.8-2.2
		C148.7,643.4,150.6,642.9,152.8,642.7z"/>
</g>
<g>
	<path class="st2" d="M78.2,726.6c0.2,2.3,0,4.2-0.3,6c-0.3,1.8-0.8,3.5-1.4,5c-1.2,3.1-2.9,5.8-5,8.2c-2.1,2.4-4.5,4.5-7.4,6.2
		c-3,1.6-6.2,3-10.7,3.3c-0.3-4.5,0.6-7.9,1.7-11c1.2-3.1,2.9-5.8,5-8.2c2.1-2.4,4.5-4.5,7.4-6.1c1.5-0.8,3-1.6,4.8-2.2
		C74,727.3,75.9,726.8,78.2,726.6z"/>
</g>
<g>
	<path class="st2" d="M97.8,678.4c0.2,2.3,0,4.2-0.3,6c-0.3,1.8-0.8,3.5-1.4,5c-1.2,3.1-2.9,5.8-5,8.3c-2.1,2.4-4.5,4.5-7.4,6.2
		c-3,1.6-6.2,3-10.7,3.3c-0.3-4.5,0.6-7.9,1.7-11.1c1.2-3.1,2.9-5.8,5-8.2c2.1-2.4,4.5-4.5,7.4-6.1c1.5-0.8,3-1.6,4.8-2.2
		C93.7,679.1,95.6,678.6,97.8,678.4z"/>
</g>
<g>
	<path class="st2" d="M177.1,668.5c0.2,2.3,0,4.2-0.3,6c-0.3,1.8-0.8,3.5-1.4,5.1c-1.2,3.1-2.9,5.9-4.9,8.3c-2,2.4-4.4,4.5-7.3,6.2
		c-2.9,1.7-6.2,3.1-10.6,3.5c-0.4-4.5,0.5-7.9,1.6-11.1c1.2-3.1,2.9-5.9,4.9-8.3c2.1-2.4,4.5-4.5,7.4-6.2c1.4-0.9,3-1.6,4.8-2.2
		C173,669.2,174.8,668.7,177.1,668.5z"/>
</g>
<g>
	<path class="st2" d="M124.4,697.6c0.2,2.3,0,4.2-0.3,6c-0.3,1.8-0.8,3.5-1.4,5.1c-1.2,3.1-2.9,5.9-4.9,8.3c-2,2.4-4.4,4.5-7.3,6.2
		c-2.9,1.7-6.2,3.1-10.6,3.5c-0.4-4.5,0.5-7.9,1.6-11.1c1.2-3.1,2.9-5.9,4.9-8.3c2.1-2.4,4.5-4.5,7.4-6.2c1.4-0.9,3-1.6,4.8-2.2
		C120.3,698.2,122.1,697.7,124.4,697.6z"/>
</g>
<path class="st2" d="M583.3,287.6c-2.8-21.9-6.2-43.6-10.4-65.2c-9.4-49.2-21.5-98.1-47.4-141.6c-15.9-26.6-37.3-50.4-65.5-64.3
	C430.1,1.8,395.7-0.2,362.3,0.1c-62.9,0.5-127.1,8.7-185.6,33c-41.2,17.1-80.6,39.4-100.6,81.4C59.7,149.5,59.1,189,60.1,227
	c1,40.5,3,81,4.7,121.5l5.5,130.8l2.7,64.1l1.4,32c0.3,6.6,4.6,26.6,1.4,32c8.5-13.9,21.7-24.4,37.1-29.7l-12.5-303.4
	c-2-48-2.4-101,28.3-138c18-21.8,44.4-34.7,70.9-44.6c47.1-17.7,96.8-27.7,147.1-29.6c33.2-1.3,67.7,1.3,96.8,17.2
	c32.4,17.7,54.5,50,69.1,83.9c25.6,59.2,31.8,124.7,37.5,189c8.7,97.5,17.2,195.7,5.9,292.9c-3.6,30.7-9.5,62.2-27.1,87.5
	c-18.9,27.2-49.7,44.4-81.7,52.8s-65.6,9-98.7,8.5c-61.3-0.8-124.4-5.3-179.4-32.4l-55.2,27c22.3,36.3,67.7,50.5,109.7,58.1
	c59.8,10.7,120.8,13.7,181.3,8.9c59.3-4.7,123.9-20.5,158.3-69.1c20.5-29,27-65.5,31.1-100.8c8.9-77.7,8.5-156.2,3.6-234.2
	C594.2,396.8,590.4,341.9,583.3,287.6z"/>
<path class="st2" d="M182.7,209.6c5.6-6.5,14.3-10.1,22.8-11.8c4.4-0.9,9.3-1.6,12.1-5.1c3.3-4.1,1.8-10.6-2.1-14.2
	s-9.4-4.8-14.6-4.9c-6.1-0.3-12.2,0.9-17.7,3.4c-15.4,7-22.5,23.2-27.8,38.2c-6.7,18.7-5.1,42-3.2,61.5c0.9,9.3,2.3,18.6,3.9,27.9
	c2.6,14.6,6.1,29.3,13.3,42.2c7.1,13,18.4,24.3,32.6,28.7c18.5,5.8,39.2-1.1,54.4-13.3c9-7.3,16.6-16.5,20.4-27.5
	c3.3-9.8,3.5-20.4,2.3-30.6s-4.2-21.4-12.3-27.9c-6.2-5-14.3-6.6-22.2-7.2c-6.5-0.4-13.6,0-18.9,3.9c-4.1,3.3-6.7,8-7.3,13.2
	c-0.7,5.1,0.7,11.2,5.4,13.3c3.8,1.7,8.2,0.2,12.3,0.1c7.3-0.1,13.9,4.4,16.6,11.2c5.4,15-9.6,26.6-21.7,31.5
	c-7.9,3.2-16.8,5.4-24.9,2.8c-15.2-4.9-20.8-22-24.1-35.9c-6.1-25.3-9.5-51.5-6.8-77.4c0.7-7,2-14.1,5.9-19.9
	C181.5,211.1,182.1,210.3,182.7,209.6z"/>
<path class="st2" d="M297.8,201.7c0,0-5.6-24.3-12.7-28.1s-25.7-2.8-16.4,24.2s31,77.8,32.8,120.2s23.8,25.7,24.9,14.6
	S317.4,259.7,297.8,201.7z"/>
<path class="st2" d="M358.1,188.2c0,0-5.6-24.3-12.7-28.1s-25.7-2.8-16.4,24.2s31,77.8,32.8,120.2s23.8,25.7,24.9,14.6
	S377.7,246.2,358.1,188.2z"/>
<path class="st2" d="M422.7,217.6c-1.8-3.3-2.8-6.9-3-10.6c-0.6-6.4-0.1-12.9,1.4-19.1c1.1-4.6,3-9.4,7-12c6.3-4.2,15.2-1.3,22-4.8
	c6.2-3.3,8.6-11,5.4-17.2c-0.9-1.6-2.1-3.1-3.5-4.2c-3.8-2.9-8.9-3.5-13.8-3.5c-9.2-0.1-18.5,1.3-26.6,5.7
	c-7.3,3.9-13,10.4-15.7,18.3c-3.2,9-1.8,20.2-1.4,29.7c1,21.6,4.1,43.1,6.2,64.7c0.2,2.4,0.4,4.8,0.6,7.1c0.7,8.3,1.2,16.6,3.1,24.7
	s5.5,16,11.4,21.8s13.9,9.2,22,10.4s16.5,0.5,24.6-1.2c6.2-1.3,13-3.7,15.6-9.5c1.8-4.2,0.5-9.5-2.2-13.1c-4-5.4-11.2-7-17.5-7
	c-7.1,0-14.9,2-21-1.7c-6.3-3.8-8-12.2-8.3-19.5c-0.2-5.1,0-10.3,1.8-15.1s5-9.1,9.8-11.2c5.6-2.4,12.2-1.1,17.6-3.9
	c6.8-3.6,9.1-13.4,3.2-18.9c-1.9-1.6-4.1-2.7-6.6-3.1c-4.8-1-9.8-0.1-14.7,0.2s-10.2,0-14.1-3C424.6,220.4,423.5,219.1,422.7,217.6z
	"/>
<path class="st2" d="M361.4,399.4c-10,0.7-19.9,2.1-29.7,4.1c-26.1,5.2-51.3,14-75,26.1c-14.6,7.5-28.8,16.3-44.6,20.8
	c-5.7,1.6-12,2.6-17.4,0.1c-6.7-3-8-10.1-5.7-16.4c2.5-7.1,9.5-10.8,15.9-13.8c14.2-6.8,28.4-13.6,42.8-20.1
	c22.9-10.4,45.7-20.3,70.6-25.3c53.8-11,106.9-1,157.5,18.3c1.1,0.4,2.3,0.8,3.5,1.3c7.3,2.9,14.9,6.1,20.7,11.7
	c5.3,5.1,11.5,14.9,4.9,21.5c-2.7,2.5-6.2,3.9-9.9,4c-21.5,1.3-42-13-61.1-20.8c-14.7-6.1-30.2-9.9-46-11.2
	C379,398.8,370.2,398.8,361.4,399.4z"/>
<path class="st2" d="M381.9,569.4c-1.8-20.9-8.7-87.3-51.1-81.8S289,562.8,289,562.8s2.4,101.4,3.2,115.9s5.3,21.4,15.6,21.7
	s9.5-20.9,9.5-20.9v-45c0-16.1,5.8-24.6,22.2-24.1s18,20.9,18,20.9s-1.1,37-1.8,49.8s8.7,23.5,18,19.3s10.6-18.5,10.6-18.5
	S383.8,590.3,381.9,569.4z M327.9,585.9c-22.4,1.6-20.8-36.1-7.5-57.3c3.4-5.5,8.9-10.9,15.9-9c9.1,2.4,12,11.2,14.3,19.4
	c2.2,8.7,3.6,17.7,4.1,26.7C355.8,582.1,350.3,584.4,327.9,585.9L327.9,585.9z"/>
<path class="st2" d="M481.9,622.5c-0.9-7.8-2.5-15.6-6.4-22.4s-10.1-12.6-17.8-14.2c9.7-12.4,16.2-27.6,16.9-43.3
	s-4.7-31.9-15.7-43.1c-6.9-7-16.2-12-26-12c-8.6,0-16.9,3.9-23.3,9.6c-3.6,3.3-6.8,7-9.4,11.2c-2.5,3.9-5.2,8.2-6.1,12.8
	c-0.7,3.6-0.2,7.2-0.1,10.8c0.1,13.5-0.1,27-0.1,40.4v88.1c0,2.3,0,4.7,0,7c0,5.8,0,11.7,1.9,17.1s5.9,10.5,11.5,12.1
	c8.4,2.3,17.2-4.5,20.1-12.7s1.4-17.3-0.5-25.8s-4.2-17.2-2.7-25.8c0.3-2.1,1-4.1,2.1-5.9c3.6-5.3,12-5.5,17.1-1.6s7.3,10.6,7.5,17
	s-1.1,12.8-1.6,19.1c-0.7,8-0.2,16,1.6,23.9c0.9,3.9,2.2,8,5.4,10.5c5,3.9,12.8,1.7,17-3.1s5.7-11.3,6.7-17.6
	C482.9,657.4,484,639.8,481.9,622.5z M446.5,540.5c-1.1,51.9-25.7,47.1-25.7,47.1l-2.4-71.5C418.4,516.2,447.6,488.7,446.5,540.5
	L446.5,540.5z"/>
<path class="st2" d="M494.5,522.1c0.9,27.9,1.7,56.4,2.5,84.6c0.4,14.4,0.8,28.8,1.2,43.2c0.4,13.4-0.4,27.3,4.5,40
	c1.7,4.3,4.8,8.9,9.4,9.3c14.1,1.2,14-23.5,13-32.3c-2.4-22.3-1.8-45.3-2.7-67.7l-3.3-81.6c0,0,0-9,14.8-10.9s15.9-11.5,9.2-19.4
	c-5-5.9-15.5-5.3-22.6-5.3c-12.8,0.1-25.6,0.6-38.3,1.2c-9.5,0.5-15.5,6.4-15.3,16.3c0,0,0.7,9.9,17.7,9.4
	C484.6,508.9,494.1,508.4,494.5,522.1z"/>
</svg>
