<svg version="1.1" id="Capa_1" xmlns="http://www.w3.org/2000/svg" x="0" y="0" viewBox="0 0 601.2 857.5" xml:space="preserve"><style>.st1{fill:none}.st2{fill:#fff}</style><path d="M195 605.6c-20-19-47.4-28.1-74.9-28.6-30.1-.5-52 40.5-63.8 62.8-12.8 24-23.1 49.3-30.7 75.4C19.5 735.8 5 772 21 791.6c6.3 7.7 16.8 10.5 26.8 10.8 29.8 1.1 64.8-12.7 91.4-25.4 29.9-14.3 61.8-34.2 78.2-64.1 18.3-33.3 6.6-76.7-18.6-103.4-1.2-1.3-2.5-2.6-3.8-3.9z" fill="none" stroke="#fff" stroke-width="20" stroke-miterlimit="10"/><path class="st1" d="M203.6 618l68.1-32.3"/><path class="st2" d="M207.4 624.4l68.1-32.3c8.7-4.1 1.1-17.1-7.6-13l-68.1 32.3c-8.7 4.2-1.1 17.1 7.6 13z"/><path class="st1" d="M185.2 600l46.9-39"/><path class="st2" d="M190.5 605.3l46.9-39.1c7.4-6.2-3.2-16.8-10.6-10.6l-46.9 39.1c-7.4 6.2 3.2 16.8 10.6 10.6z"/><path class="st1" d="M164.7 587.6l42.6-62.1"/><path class="st2" d="M171.1 591.4l42.6-62.1c5.5-8-7.5-15.5-13-7.6l-42.6 62.1c-5.4 8 7.6 15.5 13 7.6zm-49.9 26.8c.5 2.2.5 4.1.4 6-.1 1.8-.4 3.6-.8 5.2-.8 3.3-2.2 6.1-4 8.8-1.8 2.6-3.9 5-6.6 7-2.8 2-5.8 3.7-10.2 4.6-.8-4.4-.4-7.9.4-11.2.8-3.2 2.2-6.1 4-8.8 1.8-2.6 4-5 6.7-7 1.3-1 2.8-1.9 4.5-2.7 1.6-.8 3.3-1.5 5.6-1.9zm31.6 24.5c.2 2.3 0 4.2-.3 6-.3 1.8-.8 3.5-1.4 5-1.2 3.1-2.9 5.8-5 8.2-2.1 2.4-4.5 4.5-7.4 6.2-3 1.6-6.2 3-10.7 3.3-.3-4.5.6-7.9 1.7-11 1.2-3.1 2.9-5.8 5-8.2 2.1-2.4 4.5-4.5 7.4-6.1 1.5-.8 3-1.6 4.8-2.2 1.8-.5 3.7-1 5.9-1.2zm-74.6 83.9c.2 2.3 0 4.2-.3 6-.3 1.8-.8 3.5-1.4 5-1.2 3.1-2.9 5.8-5 8.2-2.1 2.4-4.5 4.5-7.4 6.2-3 1.6-6.2 3-10.7 3.3-.3-4.5.6-7.9 1.7-11 1.2-3.1 2.9-5.8 5-8.2 2.1-2.4 4.5-4.5 7.4-6.1 1.5-.8 3-1.6 4.8-2.2 1.7-.5 3.6-1 5.9-1.2zm19.6-48.2c.2 2.3 0 4.2-.3 6-.3 1.8-.8 3.5-1.4 5-1.2 3.1-2.9 5.8-5 8.3-2.1 2.4-4.5 4.5-7.4 6.2-3 1.6-6.2 3-10.7 3.3-.3-4.5.6-7.9 1.7-11.1 1.2-3.1 2.9-5.8 5-8.2 2.1-2.4 4.5-4.5 7.4-6.1 1.5-.8 3-1.6 4.8-2.2 1.8-.5 3.7-1 5.9-1.2zm79.3-9.9c.2 2.3 0 4.2-.3 6-.3 1.8-.8 3.5-1.4 5.1-1.2 3.1-2.9 5.9-4.9 8.3-2 2.4-4.4 4.5-7.3 6.2-2.9 1.7-6.2 3.1-10.6 3.5-.4-4.5.5-7.9 1.6-11.1 1.2-3.1 2.9-5.9 4.9-8.3 2.1-2.4 4.5-4.5 7.4-6.2 1.4-.9 3-1.6 4.8-2.2 1.7-.6 3.5-1.1 5.8-1.3zm-52.7 29.1c.2 2.3 0 4.2-.3 6-.3 1.8-.8 3.5-1.4 5.1-1.2 3.1-2.9 5.9-4.9 8.3-2 2.4-4.4 4.5-7.3 6.2-2.9 1.7-6.2 3.1-10.6 3.5-.4-4.5.5-7.9 1.6-11.1 1.2-3.1 2.9-5.9 4.9-8.3 2.1-2.4 4.5-4.5 7.4-6.2 1.4-.9 3-1.6 4.8-2.2 1.7-.7 3.5-1.2 5.8-1.3z"/><path class="st2" d="M583.3 287.6c-2.8-21.9-6.2-43.6-10.4-65.2-9.4-49.2-21.5-98.1-47.4-141.6-15.9-26.6-37.3-50.4-65.5-64.3C430.1 1.8 395.7-.2 362.3.1c-62.9.5-127.1 8.7-185.6 33-41.2 17.1-80.6 39.4-100.6 81.4-16.4 35-17 74.5-16 112.5 1 40.5 3 81 4.7 121.5l5.5 130.8 2.7 64.1 1.4 32c.3 6.6 4.6 26.6 1.4 32 8.5-13.9 21.7-24.4 37.1-29.7l-12.5-303.4c-2-48-2.4-101 28.3-138 18-21.8 44.4-34.7 70.9-44.6C246.7 74 296.4 64 346.7 62.1c33.2-1.3 67.7 1.3 96.8 17.2 32.4 17.7 54.5 50 69.1 83.9 25.6 59.2 31.8 124.7 37.5 189 8.7 97.5 17.2 195.7 5.9 292.9-3.6 30.7-9.5 62.2-27.1 87.5-18.9 27.2-49.7 44.4-81.7 52.8s-65.6 9-98.7 8.5c-61.3-.8-124.4-5.3-179.4-32.4l-55.2 27c22.3 36.3 67.7 50.5 109.7 58.1 59.8 10.7 120.8 13.7 181.3 8.9 59.3-4.7 123.9-20.5 158.3-69.1 20.5-29 27-65.5 31.1-100.8 8.9-77.7 8.5-156.2 3.6-234.2-3.7-54.6-7.5-109.5-14.6-163.8z"/><path class="st2" d="M182.7 209.6c5.6-6.5 14.3-10.1 22.8-11.8 4.4-.9 9.3-1.6 12.1-5.1 3.3-4.1 1.8-10.6-2.1-14.2s-9.4-4.8-14.6-4.9c-6.1-.3-12.2.9-17.7 3.4-15.4 7-22.5 23.2-27.8 38.2-6.7 18.7-5.1 42-3.2 61.5.9 9.3 2.3 18.6 3.9 27.9 2.6 14.6 6.1 29.3 13.3 42.2 7.1 13 18.4 24.3 32.6 28.7 18.5 5.8 39.2-1.1 54.4-13.3 9-7.3 16.6-16.5 20.4-27.5 3.3-9.8 3.5-20.4 2.3-30.6s-4.2-21.4-12.3-27.9c-6.2-5-14.3-6.6-22.2-7.2-6.5-.4-13.6 0-18.9 3.9-4.1 3.3-6.7 8-7.3 13.2-.7 5.1.7 11.2 5.4 13.3 3.8 1.7 8.2.2 12.3.1 7.3-.1 13.9 4.4 16.6 11.2 5.4 15-9.6 26.6-21.7 31.5-7.9 3.2-16.8 5.4-24.9 2.8-15.2-4.9-20.8-22-24.1-35.9-6.1-25.3-9.5-51.5-6.8-77.4.7-7 2-14.1 5.9-19.9.4-.7 1-1.5 1.6-2.2zm115.1-7.9s-5.6-24.3-12.7-28.1-25.7-2.8-16.4 24.2 31 77.8 32.8 120.2 23.8 25.7 24.9 14.6-9-72.9-28.6-130.9zm60.3-13.5s-5.6-24.3-12.7-28.1-25.7-2.8-16.4 24.2 31 77.8 32.8 120.2 23.8 25.7 24.9 14.6-9-72.9-28.6-130.9zm64.6 29.4c-1.8-3.3-2.8-6.9-3-10.6-.6-6.4-.1-12.9 1.4-19.1 1.1-4.6 3-9.4 7-12 6.3-4.2 15.2-1.3 22-4.8 6.2-3.3 8.6-11 5.4-17.2-.9-1.6-2.1-3.1-3.5-4.2-3.8-2.9-8.9-3.5-13.8-3.5-9.2-.1-18.5 1.3-26.6 5.7-7.3 3.9-13 10.4-15.7 18.3-3.2 9-1.8 20.2-1.4 29.7 1 21.6 4.1 43.1 6.2 64.7.2 2.4.4 4.8.6 7.1.7 8.3 1.2 16.6 3.1 24.7s5.5 16 11.4 21.8 13.9 9.2 22 10.4 16.5.5 24.6-1.2c6.2-1.3 13-3.7 15.6-9.5 1.8-4.2.5-9.5-2.2-13.1-4-5.4-11.2-7-17.5-7-7.1 0-14.9 2-21-1.7-6.3-3.8-8-12.2-8.3-19.5-.2-5.1 0-10.3 1.8-15.1s5-9.1 9.8-11.2c5.6-2.4 12.2-1.1 17.6-3.9 6.8-3.6 9.1-13.4 3.2-18.9-1.9-1.6-4.1-2.7-6.6-3.1-4.8-1-9.8-.1-14.7.2s-10.2 0-14.1-3c-1.4-1.2-2.5-2.5-3.3-4zm-61.3 181.8c-10 .7-19.9 2.1-29.7 4.1-26.1 5.2-51.3 14-75 26.1-14.6 7.5-28.8 16.3-44.6 20.8-5.7 1.6-12 2.6-17.4.1-6.7-3-8-10.1-5.7-16.4 2.5-7.1 9.5-10.8 15.9-13.8 14.2-6.8 28.4-13.6 42.8-20.1 22.9-10.4 45.7-20.3 70.6-25.3 53.8-11 106.9-1 157.5 18.3 1.1.4 2.3.8 3.5 1.3 7.3 2.9 14.9 6.1 20.7 11.7 5.3 5.1 11.5 14.9 4.9 21.5-2.7 2.5-6.2 3.9-9.9 4-21.5 1.3-42-13-61.1-20.8-14.7-6.1-30.2-9.9-46-11.2-8.9-.9-17.7-.9-26.5-.3zm20.5 170c-1.8-20.9-8.7-87.3-51.1-81.8S289 562.8 289 562.8s2.4 101.4 3.2 115.9 5.3 21.4 15.6 21.7 9.5-20.9 9.5-20.9v-45c0-16.1 5.8-24.6 22.2-24.1s18 20.9 18 20.9-1.1 37-1.8 49.8 8.7 23.5 18 19.3 10.6-18.5 10.6-18.5-.5-91.6-2.4-112.5zm-54 16.5c-22.4 1.6-20.8-36.1-7.5-57.3 3.4-5.5 8.9-10.9 15.9-9 9.1 2.4 12 11.2 14.3 19.4 2.2 8.7 3.6 17.7 4.1 26.7 1.1 16.4-4.4 18.7-26.8 20.2zm154 36.6c-.9-7.8-2.5-15.6-6.4-22.4s-10.1-12.6-17.8-14.2c9.7-12.4 16.2-27.6 16.9-43.3s-4.7-31.9-15.7-43.1c-6.9-7-16.2-12-26-12-8.6 0-16.9 3.9-23.3 9.6-3.6 3.3-6.8 7-9.4 11.2-2.5 3.9-5.2 8.2-6.1 12.8-.7 3.6-.2 7.2-.1 10.8.1 13.5-.1 27-.1 40.4v95.1c0 5.8 0 11.7 1.9 17.1s5.9 10.5 11.5 12.1c8.4 2.3 17.2-4.5 20.1-12.7s1.4-17.3-.5-25.8-4.2-17.2-2.7-25.8c.3-2.1 1-4.1 2.1-5.9 3.6-5.3 12-5.5 17.1-1.6s7.3 10.6 7.5 17-1.1 12.8-1.6 19.1c-.7 8-.2 16 1.6 23.9.9 3.9 2.2 8 5.4 10.5 5 3.9 12.8 1.7 17-3.1s5.7-11.3 6.7-17.6c2.9-17.2 4-34.8 1.9-52.1zm-35.4-82c-1.1 51.9-25.7 47.1-25.7 47.1l-2.4-71.5c0 .1 29.2-27.4 28.1 24.4z"/><path class="st2" d="M494.5 522.1c.9 27.9 1.7 56.4 2.5 84.6l1.2 43.2c.4 13.4-.4 27.3 4.5 40 1.7 4.3 4.8 8.9 9.4 9.3 14.1 1.2 14-23.5 13-32.3-2.4-22.3-1.8-45.3-2.7-67.7l-3.3-81.6s0-9 14.8-10.9 15.9-11.5 9.2-19.4c-5-5.9-15.5-5.3-22.6-5.3-12.8.1-25.6.6-38.3 1.2-9.5.5-15.5 6.4-15.3 16.3 0 0 .7 9.9 17.7 9.4 0 0 9.5-.5 9.9 13.2z"/></svg>